# xmcd
#
# Track frame offsets: 
#        150
#        11500
#        25537
#        41617
#        56125
#        76940
#        92782
#        107130
#        123672
#        140397
#        156432
#
# Disc length: 2304 seconds
#
# Revision: 5
# Processed by: cddbd v1.5.1PL0 Copyright (c) Steve Scherf et al.
# Submitted via: ExactAudioCopy v0.95b1
#
DISCID=8a08fe0b
DTITLE=Alabama - In Pictures
DYEAR=1995
DGENRE=
TTITLE0=Sunday Drive
TTITLE1=She Ain't Your Ordinary Girl
TTITLE2=My Love Belongs To You
TTITLE3=I've Loved A Lot More Than I've Hurt
TTITLE4=Spin The Wheel
TTITLE5=Nothing Comes Close
TTITLE6=Say I
TTITLE7=It Works
TTITLE8=The Maker Said Take Her
TTITLE9=In Pictures
TTITLE10=Heartbreak Express
EXTD=
EXTT0=
EXTT1=
EXTT2=
EXTT3=
EXTT4=
EXTT5=
EXTT6=
EXTT7=
EXTT8=
EXTT9=
EXTT10=
PLAYORDER=
